#!OML:ASF H:\GeneralSubjects\Female5\Project 1\Capture day 1\Session 1\Female5.ASF
:FULLY-SPECIFIED
:DEGREES
445
root 19.706 16.5651 7.66766 5.983 80.357 -4.48663
lowerback 2.49518 0.044867 1.46725
upperback -11.0578 0.974894 3.18327
thorax -13.4607 0.710552 2.49696
lowerneck -12.8965 -1.8473 -2.31145
upperneck 33.4983 -0.975641 -0.517777
head 13.4486 -0.422025 0.141757
rclavicle -9.54166e-015 8.74653e-015
rhumerus -43.6033 26.6499 -79.9201
rradius 44.3027
rwrist -9.76523
rhand -22.2214 -21.4601
rfingers 7.12502
rthumb 4.19495 -51.3985
lclavicle -9.54166e-015 8.74653e-015
lhumerus -34.1119 -14.5527 83.111
lradius 53.7255
lwrist -8.67331
lhand -26.5222 31.3696
lfingers 7.12502
lthumb 0.0413417 61.3493
rfemur 2.37646 15.4504 31.2587
rtibia -1.28801
rfoot -5.72553 -19.4023
rtoes -12.0423
lfemur -6.66356 -22.0616 -30.0414
ltibia 5.17553
lfoot -18.9652 -6.17201
ltoes -10.4713
446
root 19.8222 16.4378 7.66645 6.30294 80.4092 -4.05014
lowerback 2.43374 0.0279724 0.995469
upperback -11.0731 0.895049 3.10795
thorax -13.4402 0.716841 2.6895
lowerneck -12.3461 -1.80393 -2.13809
upperneck 33.5006 -1.10135 -0.0843395
head 13.3294 -0.387813 0.268558
rclavicle -2.84262e-014 3.18055e-015
rhumerus -42.2699 26.2005 -79.1361
rradius 43.1745
rwrist -8.98881
rhand -22.4601 -21.6084
rfingers 7.12502
rthumb 3.96447 -51.5513
lclavicle -2.84262e-014 3.18055e-015
lhumerus -33.9096 -14.2813 83.1204
lradius 54.3481
lwrist -9.10469
lhand -27.0002 31.4426
lfingers 7.12502
lthumb -0.420324 61.4219
rfemur 3.00646 15.3273 31.4636
rtibia -0.816973
rfoot -8.47819 -18.6945
rtoes -12.9801
lfemur -6.2291 -21.3909 -30.581
ltibia 5.71929
lfoot -17.4853 -8.09471
ltoes -10.465
447
root 19.9401 16.3195 7.66452 6.90773 80.4913 -3.38858
lowerback 2.26948 0.0213102 0.531555
upperback -11.0853 0.825075 2.99969
thorax -13.3504 0.724373 2.83936
lowerneck -11.8293 -1.77108 -1.93495
upperneck 33.6159 -1.21842 0.298572
head 13.267 -0.350544 0.371804
rclavicle -2.00773e-014 -1.19271e-014
rhumerus -41.0979 25.6127 -78.4477
rradius 42.2292
rwrist -8.29096
rhand -22.7119 -21.7205
rfingers 7.12502
rthumb 3.72129 -51.6678
lclavicle -2.00773e-014 -1.19271e-014
lhumerus -33.8054 -13.9547 83.2237
lradius 54.7734
lwrist -9.49019
lhand -27.4157 31.5281
lfingers 7.12502
lthumb -0.821538 61.5063
rfemur 3.53608 15.1947 31.5923
rtibia -0.298779
rfoot -11.3815 -18.0822
rtoes -13.0475
lfemur -5.88574 -20.7926 -31.1181
ltibia 6.25593
lfoot -16.198 -9.84479
ltoes -10.7241
448
root 20.06 16.2134 7.66105 7.93871 80.5962 -2.34762
lowerback 2.02646 0.0357022 0.0956032
upperback -11.0875 0.78099 2.83999
thorax -13.1987 0.736662 2.91283
lowerneck -11.3973 -1.75751 -1.7373
upperneck 33.8495 -1.33301 0.632794
head 13.2751 -0.316798 0.458019
rclavicle 2.88238e-014 2.38542e-015
rhumerus -40.1629 24.8877 -77.8715
rradius 41.5482
rwrist -7.78058
rhand -22.9729 -21.796
rfingers 7.12502
rthumb 3.46928 -51.7475
lclavicle 2.88238e-014 2.38542e-015
lhumerus -33.8068 -13.6571 83.429
lradius 54.9728
lwrist -9.75978
lhand -27.7729 31.6143
lfingers 7.12502
lthumb -1.16655 61.5909
rfemur 3.87568 14.8472 31.5437
rtibia 0.384007
rfoot -14.1173 -17.3297
rtoes -12.76
lfemur -5.65928 -20.2036 -31.6649
ltibia 6.86068
lfoot -14.945 -11.2988
ltoes -11.0926
449
root 20.1817 16.1221 7.65513 9.40672 80.7079 -0.877751
lowerback 1.76429 0.0864277 -0.262672
upperback -11.071 0.785856 2.60265
thorax -13.0132 0.757264 2.85103
lowerneck -11.0727 -1.77086 -1.55334
upperneck 34.1992 -1.45523 0.913073
head 13.3582 -0.292154 0.525676
rclavicle -3.57812e-015 1.98785e-014
rhumerus -39.54 24.007 -77.4337
rradius 41.1843
rwrist -7.50697
rhand -23.232 -21.8388
rfingers 7.12502
rthumb 3.21902 -51.7943
lclavicle -3.57812e-015 1.98785e-014
lhumerus -33.9407 -13.4545 83.725
lradius 54.9291
lwrist -9.88272
lhand -28.0721 31.6904
lfingers 7.12502
lthumb -1.45559 61.6652
rfemur 3.98991 14.1857 31.2744
rtibia 1.33058
rfoot -16.4333 -16.3785
rtoes -12.7522
lfemur -5.49818 -19.57 -32.2323
ltibia 7.50967
lfoot -13.6099 -12.3548
ltoes -11.5217
450
root 20.3036 16.0478 7.64594 11.0727 80.8099 0.82745
lowerback 1.55407 0.189529 -0.490521
upperback -11.02 0.865604 2.29442
thorax -12.8202 0.793647 2.62987
lowerneck -10.8742 -1.81571 -1.37519
upperneck 34.6592 -1.5855 1.10716
head 13.5186 -0.279546 0.560789
rclavicle -2.68359e-014 -2.38542e-015
rhumerus -39.2634 22.9697 -77.112
rradius 41.1591
rwrist -7.42428
rhand -23.452 -21.8798
rfingers 7.12502
rthumb 3.00658 -51.8384
lclavicle -2.68359e-014 -2.38542e-015
lhumerus -34.2316 -13.3447 84.1216
lradius 54.6366
lwrist -9.85953
lhand -28.3423 31.7658
lfingers 7.12502
lthumb -1.71653 61.7387
rfemur 3.83871 13.1606 30.8062
rtibia 2.68271
rfoot -18.1908 -15.2114
rtoes -13.1953
lfemur -5.30327 -18.8941 -32.7984
ltibia 8.10909
lfoot -12.1872 -12.9668
ltoes -12.0152
451
root 20.4241 15.9919 7.63307 12.4859 80.8945 2.35684
lowerback 1.48235 0.365668 -0.496603
upperback -10.9136 1.05297 1.91847
thorax -12.6475 0.85242 2.19869
lowerneck -10.8571 -1.90502 -1.23242
upperneck 35.1924 -1.75039 1.24054
head 13.755 -0.292486 0.573696
rclavicle -9.74045e-015 -3.18055e-015
rhumerus -39.3088 21.7854 -76.8979
rradius 41.4213
rwrist -7.48753
rhand -23.6481 -21.8884
rfingers 7.12502
rthumb 2.81719 -51.8495
lclavicle -9.74045e-015 -3.18055e-015
lhumerus -34.6538 -13.3325 84.6045
lradius 54.076
lwrist -9.71828
lhand -28.589 31.784
lfingers 7.12502
lthumb -1.95477 61.7548
rfemur 3.36187 11.6503 30.1846
rtibia 4.60412
rfoot -19.2236 -13.8379
rtoes -14.671
lfemur -4.97373 -18.2267 -33.3159
ltibia 8.5664
lfoot -10.7971 -13.193
ltoes -12.4937
452
root 20.5424 15.9538 7.61685 13.1764 80.9622 3.2638
lowerback 1.54842 0.543291 -0.328865
upperback -10.7751 1.25864 1.58027
thorax -12.5188 0.904652 1.71062
lowerneck -10.8168 -1.97226 -1.08342
upperneck 35.7157 -1.84127 1.25424
head 13.9827 -0.28686 0.548794
rclavicle 1.20265e-014 -7.95139e-016
rhumerus -39.6762 20.754 -76.864
rradius 41.8786
rwrist -7.67205
rhand -23.8385 -21.8087
rfingers 7.12502
rthumb 2.63331 -51.7722
lclavicle 1.20265e-014 -7.95139e-016
lhumerus -35.3563 -13.142 85.1243
lradius 53.2856
lwrist -9.52548
lhand -28.7708 31.682
lfingers 7.12502
lthumb -2.13039 61.6511
rfemur 2.54997 9.72259 29.5145
rtibia 7.19648
rfoot -19.554 -12.3712
rtoes -17.1315
lfemur -4.44321 -17.6301 -33.7353
ltibia 8.8353
lfoot -9.60234 -13.1639
ltoes -12.8708
453
root 20.6583 15.931 7.59834 12.7728 81.0158 3.17792
lowerback 1.77636 0.721743 0.0351606
upperback -10.5903 1.48566 1.31074
thorax -12.4311 0.951152 1.1845
lowerneck -10.8117 -2.01321 -0.915978
upperneck 36.1924 -1.85446 1.13595
head 14.197 -0.264141 0.477443
rclavicle 8.24956e-015 2.0276e-014
rhumerus -40.2526 19.9013 -76.9671
rradius 42.429
rwrist -7.89903
rhand -23.9758 -21.6111
rfingers 7.12502
rthumb 2.50069 -51.5762
lclavicle 8.24956e-015 2.0276e-014
lhumerus -36.2756 -12.707 85.6383
lradius 52.2922
lwrist -9.33502
lhand -28.8624 31.4918
lfingers 7.12502
lthumb -2.21879 61.46
rfemur 1.4235 7.54504 28.9127
rtibia 10.4832
rfoot -19.2826 -10.9239
rtoes -20.1357
lfemur -3.69605 -17.1528 -34.0114
ltibia 8.91756
lfoot -8.71959 -13.0351
ltoes -13.1274
